# xmcd
#
# Track frame offsets:
#	150
#	20679
#	41187
#	61204
#	82770
#	102860
#	123649
#	140737
#	161499
#	180795
#	200528
#	218988
#	241198
#	258541
#	280149
#	296603
#	315390
#
# Disc length: 4483
#
# Revision: 2
# Processed by: cddbd v1.5.1PL0 Copyright (c) Steve Scherf et al.
# Submitted via: CDex 1.51
# Normalized: r1:TDELIM( - )
#
DISCID=f3118111
DTITLE=Various Artist - Merengue 2005 CD 1
DYEAR=2004
DGENRE=Merengue
TTITLE0=La mesa que mas aplauda - Climax
TTITLE1=Obsesion - Frenesi
TTITLE2=Anoche Hablamos - Segio V
TTITLE3=Move It - Bocana
TTITLE4=Una Cancion - Terranova
TTITLE5=Abusadora - Oro Solido
TTITLE6=Borron y Cuenta Nueva - Hnos. Rosario
TTITLE7=Chica Good - G. Ruo
TTITLE8=Como yo nadie te ha amado - Eddy H
TTITLE9=El Jardinero - Wilfrido V
TTITLE10=Fuego - Chicas Del Can
TTITLE11=El Venado - Solistas
TTITLE12=Guavaberry - J.L. Guerra
TTITLE13=Eres Ajena - Eddy H
TTITLE14=Hay que rumbear - Roberto A
TTITLE15=Esa Morena - Hnos. Rosario
TTITLE16=La Bailadora - Eddy H
EXTD=YEAR: 2004
EXTT0=
EXTT1=
EXTT2=
EXTT3=
EXTT4=
EXTT5=
EXTT6=
EXTT7=
EXTT8=
EXTT9=
EXTT10=
EXTT11=
EXTT12=
EXTT13=
EXTT14=
EXTT15=
EXTT16=
PLAYORDER=
